<svg width="155" height="40" viewBox="0 0 155 40" fill="none" xmlns="http://www.w3.org/2000/svg">
<path d="M20 40C31.0457 40 40 31.0457 40 20C40 8.9543 31.0457 0 20 0C8.9543 0 0 8.9543 0 20C0 31.0457 8.9543 40 20 40Z" fill="#291E38"/>
<g clip-path="url(#clip0_1401_20431)">
<path opacity="0.5" d="M19.989 22.174L19.989 22.1766C19.7808 22.2193 19.4684 22.2833 19.0518 22.3686C18.1687 22.5433 17.4849 22.8764 17.0002 23.3678C16.5156 23.8592 16.2733 24.4434 16.2733 25.1204C16.2733 25.3506 16.2972 25.5687 16.3452 25.7749L12.129 27.0699C11.8763 26.3632 11.75 25.6152 11.75 24.8256C11.75 23.1439 12.31 21.6806 13.4301 20.4358C14.5501 19.1909 16.1225 18.3719 18.1472 17.9788C18.9629 17.8582 19.5755 17.7582 19.985 17.6786V17.6777C20.2024 17.6358 20.5284 17.5591 20.9631 17.4476C22.6181 17.124 23.4455 16.2612 23.4455 14.8592C23.4455 14.7301 23.4368 14.6039 23.4194 14.4808C23.4054 14.382 23.3858 14.2812 23.3606 14.1863L27.495 12.9182C27.7398 13.6202 27.8622 14.3791 27.8622 15.1827C27.8622 16.8868 27.3249 18.3104 26.2503 19.4536C25.1757 20.5968 23.7142 21.3625 21.8658 21.7508C21.0328 21.948 20.4072 22.0891 19.989 22.174Z" fill="white"/>
<path d="M19.9887 8.00035C22.1443 8.01807 23.9869 8.70818 25.5249 10.0707C26.4641 10.9028 27.1202 11.8524 27.4933 12.9195L23.3599 14.1877C23.222 13.67 22.9174 13.209 22.4461 12.8047C21.8047 12.2544 20.9886 11.969 19.9887 11.9485C19.9595 11.9481 19.9252 11.9473 19.8956 11.9473C18.8425 11.9473 17.9828 12.2331 17.3165 12.8047C16.6502 13.3763 16.3171 14.0611 16.3171 14.8592C16.3171 16.2612 17.1446 17.124 18.7995 17.4476C19.328 17.5508 19.724 17.6278 19.9874 17.6785V17.6777C20.397 17.7573 21.0113 17.8577 21.8304 17.9788C23.8551 18.3719 25.4274 19.1909 26.5475 20.4358C27.6675 21.6806 28.2276 23.1439 28.2276 24.8256C28.2276 26.7475 27.4791 28.4237 25.9821 29.8542C24.4851 31.2847 22.5089 32 19.9887 32C17.4686 32 15.4924 31.2847 13.9954 29.8542C13.1136 29.0116 12.4915 28.0837 12.1292 27.0705L16.3454 25.776C16.4751 26.3325 16.7795 26.802 17.2586 27.1843C17.9156 27.7085 18.8256 27.9705 19.9887 27.9705C21.1519 27.9705 22.0619 27.7085 22.7189 27.1843C23.3758 26.6601 23.7043 25.9722 23.7043 25.1204C23.7043 24.4434 23.462 23.8592 22.9773 23.3678C22.4927 22.8764 21.8088 22.5433 20.9257 22.3686C20.5093 22.2833 20.197 22.2193 19.9887 22.1767V22.1779C19.5247 22.0838 18.8274 21.9414 17.8968 21.7507C16.0484 21.3625 14.587 20.5968 13.5123 19.4536C12.4377 18.3104 11.9004 16.8868 11.9004 15.1827C11.9004 13.1552 12.6795 11.4512 14.2377 10.0707C15.7959 8.69023 17.6711 8 19.8634 8C19.9039 8 19.9485 8.00017 19.9887 8.00052V8.00035Z" fill="white"/>
</g>
<g clip-path="url(#clip1_1401_20431)">
<path d="M65.8793 13.4516L61.7413 14.7197C61.5856 13.8743 61.1629 13.1068 60.4732 12.4171C59.7836 11.7275 58.7713 11.3826 57.4365 11.3826C56.3464 11.3826 55.4565 11.6774 54.7668 12.267C54.0772 12.8565 53.7323 13.5629 53.7323 14.386C53.7323 15.8321 54.5888 16.722 56.3019 17.0557L59.6056 17.6897C61.6968 18.0902 63.3209 18.9244 64.4777 20.1925C65.6346 21.4606 66.213 22.9512 66.213 24.6642C66.213 26.622 65.4399 28.3294 63.8937 29.7866C62.3475 31.2438 60.273 31.9724 57.6701 31.9724C56.1795 31.9724 54.8336 31.7499 53.6322 31.305C52.4309 30.8601 51.4631 30.2649 50.729 29.5197C49.9948 28.7744 49.4219 27.9846 49.0104 27.1503C48.5988 26.3161 48.3485 25.454 48.2595 24.5641L52.531 23.4295C52.6422 24.6976 53.1372 25.7543 54.016 26.5997C54.8948 27.4451 56.1239 27.8678 57.7035 27.8678C58.9048 27.8678 59.8447 27.6008 60.5233 27.0669C61.2018 26.533 61.5411 25.8322 61.5411 24.9645C61.5411 24.2749 61.2908 23.6798 60.7903 23.1792C60.2897 22.6786 59.5833 22.3394 58.6712 22.1614L55.3675 21.494C53.4542 21.0935 51.9414 20.3038 50.8291 19.1247C49.7167 17.9456 49.1605 16.4773 49.1605 14.7197C49.1605 12.6285 49.967 10.871 51.5799 9.44713C53.1928 8.0233 55.1339 7.3114 57.4031 7.3114C58.7602 7.3114 59.9727 7.5005 61.0405 7.8787C62.1084 8.25691 62.9649 8.76303 63.6101 9.39708C64.2553 10.0311 64.7558 10.6818 65.1118 11.3493C65.4677 12.0167 65.7236 12.7175 65.8793 13.4516ZM75.2565 10.1479V15.0534H78.5602V18.9912H75.2565V25.8656C75.2565 26.5552 75.4122 27.0447 75.7237 27.3339C76.0351 27.6231 76.5246 27.7677 77.192 27.7677C77.7927 27.7677 78.2487 27.7232 78.5602 27.6342V31.305C77.915 31.572 77.0808 31.7054 76.0574 31.7054C74.4556 31.7054 73.1875 31.2549 72.2531 30.3539C71.3187 29.4529 70.8515 28.2126 70.8515 26.6331V18.9912H67.8815V15.0534H68.7158C69.539 15.0534 70.1674 14.8143 70.6013 14.336C71.0351 13.8576 71.252 13.2292 71.252 12.4505V10.1479H75.2565ZM85.468 21.3939H92.8095C92.765 20.4817 92.4369 19.7142 91.8251 19.0913C91.2133 18.4684 90.3178 18.1569 89.1387 18.1569C88.0709 18.1569 87.2032 18.4906 86.5358 19.158C85.8684 19.8254 85.5124 20.5707 85.468 21.3939ZM93.2433 25.6653L96.9475 26.7666C96.5026 28.2794 95.6294 29.5252 94.3279 30.5041C93.0264 31.483 91.408 31.9724 89.4724 31.9724C87.1142 31.9724 85.112 31.1771 83.4657 29.5864C81.8194 27.9957 80.9963 25.8656 80.9963 23.1959C80.9963 20.6597 81.7972 18.5852 83.399 16.9722C85.0008 15.3593 86.8918 14.5529 89.072 14.5529C91.6082 14.5529 93.5937 15.3093 95.0287 16.8221C96.4636 18.3349 97.1811 20.415 97.1811 23.0624C97.1811 23.2404 97.1755 23.4406 97.1644 23.6631C97.1533 23.8856 97.1477 24.0635 97.1477 24.197L97.1144 24.4306H85.3678C85.4123 25.4985 85.835 26.3884 86.6359 27.1003C87.4368 27.8122 88.3935 28.1681 89.5058 28.1681C91.3968 28.1681 92.6427 27.3339 93.2433 25.6653ZM99.6839 27.0002C99.6839 25.5986 100.14 24.4751 101.052 23.6297C101.964 22.7843 103.143 22.2504 104.589 22.0279L108.627 21.4272C109.45 21.316 109.862 20.9267 109.862 20.2593C109.862 19.6363 109.623 19.1247 109.145 18.7242C108.666 18.3238 107.982 18.1235 107.092 18.1235C106.158 18.1235 105.418 18.3794 104.873 18.8911C104.328 19.4028 104.022 20.0368 103.955 20.7932L100.018 19.9589C100.173 18.5351 100.874 17.2781 102.12 16.188C103.366 15.0979 105.012 14.5529 107.059 14.5529C109.506 14.5529 111.308 15.1368 112.465 16.3048C113.622 17.4728 114.2 18.9689 114.2 20.7932V28.8689C114.2 29.8478 114.267 30.7154 114.4 31.4719H110.329C110.218 30.9824 110.162 30.3261 110.162 29.503C109.117 31.127 107.504 31.939 105.324 31.939C103.633 31.939 102.27 31.4496 101.236 30.4707C100.201 29.4918 99.6839 28.335 99.6839 27.0002ZM106.258 28.6353C107.304 28.6353 108.166 28.3406 108.844 27.751C109.523 27.1615 109.862 26.1881 109.862 24.8311V24.0969L106.158 24.6642C104.801 24.8644 104.122 25.5541 104.122 26.7332C104.122 27.2671 104.311 27.7176 104.69 28.0847C105.068 28.4518 105.591 28.6353 106.258 28.6353ZM134.323 7.3114V28.5019C134.323 29.592 134.367 30.582 134.456 31.4719H130.218C130.107 30.9157 130.051 30.2816 130.051 29.5697C129.673 30.2594 129.078 30.8156 128.266 31.2383C127.454 31.661 126.514 31.8723 125.446 31.8723C123.11 31.8723 121.191 31.0547 119.69 29.4195C118.188 27.7844 117.437 25.721 117.437 23.2293C117.437 20.8043 118.177 18.7687 119.656 17.1224C121.136 15.4761 123.021 14.653 125.313 14.653C127.671 14.653 129.217 15.3315 129.951 16.6886V7.3114H134.323ZM121.909 23.2293C121.909 24.6753 122.287 25.8155 123.043 26.6498C123.8 27.484 124.779 27.9012 125.98 27.9012C127.159 27.9012 128.127 27.4785 128.883 26.6331C129.64 25.7877 130.018 24.642 130.018 23.1959C130.018 21.7721 129.64 20.6542 128.883 19.8421C128.127 19.0301 127.159 18.6241 125.98 18.6241C124.801 18.6241 123.828 19.0357 123.06 19.8588C122.293 20.682 121.909 21.8054 121.909 23.2293Z" fill="#291E38"/>
<path d="M150.103 32.5841V29.4362C149.681 30.1704 149.052 30.721 148.218 31.0881C147.384 31.4551 146.129 31.8055 145.194 31.8055C143.259 31.8055 141.364 31.0213 140.252 29.7866C139.139 28.5519 138.583 27.0113 138.583 25.1648V15.1572H143.021V24.2637C143.021 25.2426 143.277 26.038 143.789 26.6498C144.301 27.2616 145.417 27.764 146.396 27.764C147.352 27.764 148.479 27.2727 149.036 26.6831C149.592 26.0936 149.87 25.3094 149.87 24.3305V15.1572H154.308V28.2349C154.308 28.9319 154.308 30.3126 154.308 32.3768C154.298 34.4536 153.484 36.442 151.881 37.8568C150.268 39.2806 148.327 39.9925 146.058 39.9925C144.701 39.9925 143.489 39.8034 142.421 39.4252C141.353 39.047 140.496 38.5409 139.851 37.9068C139.206 37.2728 138.706 36.6221 138.35 35.9546C137.994 35.2872 137.738 34.5864 137.582 33.8523L141.72 32.5842C141.876 33.4296 142.298 34.1971 142.988 34.8868C143.678 35.5764 144.69 35.9213 146.025 35.9213C147.115 35.9213 148.237 35.6265 148.927 35.0369C149.616 34.4474 150.102 33.4073 150.102 32.5842L150.103 32.5841Z" fill="#291E38"/>
</g>
<defs>
<clipPath id="clip0_1401_20431">
<rect width="16.4776" height="24" fill="white" transform="translate(11.75 8)"/>
</clipPath>
<clipPath id="clip1_1401_20431">
<rect width="106.787" height="33" fill="white" transform="translate(48 7)"/>
</clipPath>
</defs>
</svg>
